<?xml version="1.0" standalone="no"?>
<!DOCTYPE svg PUBLIC "-//W3C//DTD SVG 20010904//EN"
 "http://www.w3.org/TR/2001/REC-SVG-20010904/DTD/svg10.dtd">
<svg version="1.0" xmlns="http://www.w3.org/2000/svg"
 width="700.000000pt" height="700.000000pt" viewBox="0 0 700.000000 700.000000"
 preserveAspectRatio="xMidYMid meet">
<metadata>
Created by potrace 1.14, written by Peter Selinger 2001-2017
</metadata>
<g transform="translate(0.000000,700.000000) scale(0.100000,-0.100000)"
fill="#000000" stroke="none">
<path d="M4355 5728 c-106 -12 -278 -70 -395 -133 -87 -47 -275 -174 -322
-218 -8 -7 -47 -41 -88 -77 -82 -71 -143 -129 -382 -363 -87 -85 -158 -157
-158 -160 0 -6 8 -5 113 14 129 24 300 6 470 -47 l80 -26 106 105 c180 177
277 254 396 312 116 56 201 74 330 71 123 -4 200 -24 323 -83 160 -78 250
-164 321 -307 110 -218 106 -465 -9 -686 -43 -81 -66 -107 -470 -513 -418
-422 -469 -469 -561 -520 -51 -28 -174 -74 -217 -81 -15 -3 -43 -8 -62 -12
-72 -13 -164 -10 -282 11 -53 10 -159 55 -218 94 -117 76 -238 225 -321 394
-18 37 -37 66 -42 64 -4 -1 -91 -85 -192 -186 l-184 -183 49 -82 c224 -379
540 -616 887 -663 72 -10 281 -9 348 1 207 30 396 109 555 232 85 66 1010
1000 1067 1079 216 296 307 608 258 881 -64 359 -296 691 -630 905 -101 65
-310 148 -412 164 -21 3 -45 8 -54 11 -30 9 -233 11 -304 2z"/>
<path d="M3055 4501 c-157 -25 -316 -83 -459 -168 -71 -42 -141 -107 -587
-553 -539 -539 -567 -572 -658 -760 -88 -182 -122 -342 -116 -555 4 -168 6
-188 36 -294 55 -197 158 -371 309 -522 183 -185 370 -291 614 -350 195 -48
444 -44 607 8 25 8 52 16 60 18 66 15 185 74 273 135 45 31 194 173 401 380
182 182 332 333 335 336 2 3 -9 0 -25 -7 -20 -8 -96 -14 -220 -15 -192 -3
-279 7 -357 39 l-33 14 -166 -162 c-153 -151 -172 -166 -260 -209 -251 -122
-469 -122 -712 0 -166 83 -246 163 -321 320 -50 104 -69 192 -70 319 -1 161
30 269 113 402 14 23 229 244 476 491 443 442 451 449 535 490 153 74 268 101
406 97 110 -4 195 -25 285 -71 67 -33 162 -104 207 -153 52 -57 140 -181 186
-264 26 -48 50 -87 51 -87 4 0 330 326 358 358 18 19 17 22 -33 107 -155 262
-367 465 -592 570 -136 62 -251 86 -433 90 -88 2 -182 0 -210 -4z"/>
</g>
</svg>
